<?xml version="1.0" encoding="utf-8"?>
<!DOCTYPE svg>
<svg version="1.1" id="Layer_1" xmlns="http://www.w3.org/2000/svg" xmlns:xlink="http://www.w3.org/1999/xlink" x="0px" y="0px"
           width="95px" height="64px" viewBox="350 0 300 200" enable-background="new 0 0 650 400" xml:space="preserve">
  <filter  id="glow" height="115%" y="-6%" width="115%" x="-6%">
    <feGaussianBlur  stdDeviation="15" in="SourceGraphic"></feGaussianBlur>
  </filter>
  <g filter="url(#glow)">
    <path fill="#ffffff" d="M364.951,24.185c69.572,16.938,139.087,34.082,208.652,51.061c-1.939,4.271-3.893,8.528-5.935,12.747
      c-67.598-16.459-135.165-33.089-202.718-49.679C364.93,33.602,364.93,28.896,364.951,24.185L364.951,24.185z"/>
    <path fill="#000000" d="M383.089,51.045c60.183,14.808,120.354,29.647,180.499,44.636c-1.862,4.279-3.836,8.515-5.882,12.703
      C499.477,94.14,441.254,79.85,383.089,65.386C383.016,60.614,382.997,55.826,383.089,51.045L383.089,51.045z"/>
    <path fill="#ffffff" d="M403.488,78.288c50.316,12.346,100.676,24.573,151.036,36.843c-2.015,4.279-3.967,8.579-6.079,12.807
      c-48.434-11.916-96.9-23.714-145.34-35.599C403.067,87.654,403.021,82.955,403.488,78.288L403.488,78.288z"/>
    <path fill="#ffffff" d="M401.273,167.196c26.189-15.875,52.449-31.673,78.687-47.491c10.171,2.476,20.351,4.908,30.547,7.328
      c0.174,13.403-0.104,26.796-0.312,40.189C473.892,167.214,437.576,167.261,401.273,167.196L401.273,167.196z"/>
    <path fill="#ffffff" d="M518.29,167.547c0-12.859-0.019-25.736,0-38.601c8.884,1.996,17.778,3.975,26.654,5.979
      c-5.429,10.879-10.868,21.75-16.3,32.622C525.183,167.547,521.73,167.547,518.29,167.547L518.29,167.547z"/>
    <path fill="#ffffff" d="M632.364,160.96c-6.156-4.657-14.542-4.89-21.938-6.118c0.225-0.883,0.69-2.645,0.928-3.521
      c-6.229-3.233-13.168-4.644-19.906-6.356c-12.858-3.27-25.9-5.808-38.891-8.464c-5.279,10.38-10.774,20.654-16.09,31.005
      c28.542,0.417,57.142-0.839,85.639,1.155c3.4-0.402,3.459,3.313,4.368,5.644C629.235,170.368,632.766,165.981,632.364,160.96z
        M595.1,154.894c0.598-1.268,1.219-2.525,1.867-3.762c3.336,0.938,6.576,2.17,9.7,3.711
      C602.816,154.968,598.956,154.943,595.1,154.894z"/>
  </g>
  <g>
    <path fill="#C42126" d="M364.951,24.185c69.572,16.938,139.087,34.082,208.652,51.061c-1.939,4.271-3.893,8.528-5.935,12.747
      c-67.598-16.459-135.165-33.089-202.718-49.679C364.93,33.602,364.93,28.896,364.951,24.185L364.951,24.185z"/>
    <path fill="#BBCBD3" d="M383.089,51.045c60.183,14.808,120.354,29.647,180.499,44.636c-1.862,4.279-3.836,8.515-5.882,12.703
      C499.477,94.14,441.254,79.85,383.089,65.386C383.016,60.614,382.997,55.826,383.089,51.045L383.089,51.045z"/>
    <path fill="#005F97" d="M403.488,78.288c50.316,12.346,100.676,24.573,151.036,36.843c-2.015,4.279-3.967,8.579-6.079,12.807
      c-48.434-11.916-96.9-23.714-145.34-35.599C403.067,87.654,403.021,82.955,403.488,78.288L403.488,78.288z"/>
    <path fill="#121236" d="M401.273,167.196c26.189-15.875,52.449-31.673,78.687-47.491c10.171,2.476,20.351,4.908,30.547,7.328
      c0.174,13.403-0.104,26.796-0.312,40.189C473.892,167.214,437.576,167.261,401.273,167.196L401.273,167.196z"/>
    <path fill="#121236" d="M518.29,167.547c0-12.859-0.019-25.736,0-38.601c8.884,1.996,17.778,3.975,26.654,5.979
      c-5.429,10.879-10.868,21.75-16.3,32.622C525.183,167.547,521.73,167.547,518.29,167.547L518.29,167.547z"/>
    <path fill="#121236" d="M632.364,160.96c-6.156-4.657-14.542-4.89-21.938-6.118c0.225-0.883,0.69-2.645,0.928-3.521
      c-6.229-3.233-13.168-4.644-19.906-6.356c-12.858-3.27-25.9-5.808-38.891-8.464c-5.279,10.38-10.774,20.654-16.09,31.005
      c28.542,0.417,57.142-0.839,85.639,1.155c3.4-0.402,3.459,3.313,4.368,5.644C629.235,170.368,632.766,165.981,632.364,160.96z
        M595.1,154.894c0.598-1.268,1.219-2.525,1.867-3.762c3.336,0.938,6.576,2.17,9.7,3.711
      C602.816,154.968,598.956,154.943,595.1,154.894z"/>
  </g>

</svg>
