<!DOCTYPE svg PUBLIC "-//W3C//DTD SVG 20010904//EN" "http://www.w3.org/TR/2001/REC-SVG-20010904/DTD/svg10.dtd">
<svg version="1.0" xmlns="http://www.w3.org/2000/svg" width="500px" height="500px" viewBox="0 0 5000 5000" preserveAspectRatio="xMidYMid meet">
<g id="layer101" fill="#ffffff" stroke="none">
 <path d="M2085 4643 c-77 -14 -141 -26 -142 -27 -2 -2 8 -65 22 -141 14 -77 21 -142 17 -146 -4 -4 -32 -14 -64 -23 -31 -9 -104 -36 -163 -61 -59 -25 -111 -42 -116 -39 -4 2 -33 49 -64 102 -86 153 -62 146 -206 62 -68 -39 -128 -75 -132 -80 -5 -4 23 -62 62 -129 39 -67 71 -125 71 -129 0 -4 -19 -20 -43 -37 -23 -16 -76 -62 -117 -101 l-75 -72 -61 52 c-34 28 -84 70 -112 94 l-50 42 -83 -97 c-45 -54 -91 -108 -101 -119 -19 -21 -19 -22 79 -104 54 -46 104 -89 112 -96 11 -10 6 -24 -32 -86 -25 -40 -63 -105 -84 -144 l-38 -71 -134 49 c-74 26 -135 47 -136 46 -5 -9 -105 -291 -103 -293 2 -1 61 -22 132 -48 71 -26 131 -48 133 -51 2 -2 -3 -31 -12 -65 -12 -48 -44 -241 -45 -273 0 -5 -65 -8 -145 -8 l-145 0 0 -150 0 -150 145 0 c87 0 145 -4 145 -10 0 -49 37 -253 64 -352 130 -473 445 -883 873 -1135 198 -116 456 -206 684 -238 142 -19 406 -19 548 0 311 44 618 173 879 369 93 71 299 272 336 328 l18 28 44 -31 c24 -16 71 -55 104 -85 68 -63 95 -67 80 -12 -16 54 -49 112 -102 177 l-50 62 101 -50 c92 -47 131 -60 131 -46 0 3 -9 23 -20 44 -21 43 -69 95 -115 128 -27 19 -28 23 -17 47 14 30 31 32 117 11 80 -19 85 -19 85 8 0 24 -49 63 -107 86 -38 15 -38 14 -19 49 50 93 118 331 141 492 8 58 15 111 15 118 0 9 35 12 140 12 l140 0 0 150 0 150 -140 0 c-77 0 -140 3 -140 8 -1 32 -33 224 -45 271 -8 32 -15 61 -15 64 0 2 60 26 133 52 72 26 133 49 134 50 3 1 -95 274 -103 286 -2 4 -63 -15 -136 -42 -73 -26 -133 -47 -133 -46 -1 1 -21 38 -45 82 -23 44 -62 110 -85 146 l-42 65 89 75 c49 41 99 81 110 90 21 16 20 18 -77 133 -54 64 -102 116 -106 116 -4 0 -53 -38 -109 -85 -56 -47 -105 -85 -109 -85 -4 0 -25 19 -46 41 -22 23 -74 69 -115 102 -41 33 -74 64 -72 69 1 4 31 59 67 120 36 62 65 115 65 119 0 5 -209 129 -261 155 -3 2 -33 -45 -67 -104 -34 -59 -65 -113 -70 -120 -6 -9 -33 -2 -115 32 -59 25 -137 54 -175 65 l-69 21 24 132 c13 73 21 138 19 143 -5 15 -285 61 -295 49 -4 -5 -16 -56 -25 -114 -10 -58 -20 -115 -23 -127 -5 -23 -6 -23 -202 -23 l-197 0 -23 140 c-14 83 -28 140 -35 139 -6 -1 -74 -12 -151 -26z m524 -633 c381 -34 689 -177 956 -445 396 -395 540 -936 394 -1478 l-21 -77 -24 25 c-13 14 -30 25 -39 25 -11 0 -15 8 -13 28 2 21 -2 28 -19 30 -15 2 -20 8 -16 19 7 19 -13 33 -48 33 -29 0 -46 25 -23 34 19 7 18 32 -2 40 -9 3 -48 6 -87 6 l-72 0 32 23 c42 28 41 37 -1 37 -28 0 -35 4 -38 23 -2 16 -9 21 -26 20 -12 -2 -22 3 -22 10 0 7 -8 20 -17 29 -20 18 -32 34 -50 64 -6 10 -16 18 -22 16 -6 -1 -11 5 -11 13 0 8 -6 15 -14 15 -8 0 -18 10 -22 22 -3 12 -26 41 -50 65 -33 34 -48 43 -64 38 -12 -4 -27 -1 -35 5 -10 8 -31 10 -65 5 -34 -5 -55 -3 -65 5 -17 14 -72 16 -134 5 l-44 -8 19 32 c22 37 73 75 131 95 57 20 219 43 398 56 82 6 152 14 154 16 3 3 0 14 -7 24 -9 16 -9 18 2 14 23 -9 29 16 9 38 -21 24 -85 58 -109 58 -13 0 -12 4 6 18 33 26 17 46 -30 39 -32 -4 -37 -2 -33 13 5 19 -28 37 -47 25 -5 -3 -7 0 -4 9 8 22 -29 37 -76 30 -32 -5 -40 -4 -40 9 0 21 -33 30 -73 21 -17 -4 -48 -8 -67 -10 -89 -4 -122 -12 -145 -34 -14 -13 -25 -32 -25 -42 0 -18 -5 -17 -57 11 -32 16 -67 33 -78 37 -18 6 -18 8 -2 11 19 5 22 18 6 28 -5 4 -15 18 -20 32 -5 14 -18 27 -28 30 -12 3 -17 11 -14 23 3 12 -4 21 -25 31 -20 8 -32 23 -36 40 -3 15 -11 33 -19 41 -8 7 -20 24 -26 37 -10 17 -15 20 -21 11 -6 -9 -10 -7 -15 9 -3 11 -13 21 -21 21 -8 0 -14 5 -14 10 0 6 -7 10 -16 10 -8 0 -12 -5 -8 -11 5 -8 1 -8 -14 0 -11 6 -30 11 -42 11 -11 0 -40 18 -64 40 -24 22 -50 40 -59 40 -9 0 -19 9 -22 20 -6 18 -14 21 -58 18 -46 -3 -52 -6 -55 -26 -3 -21 -1 -22 17 -12 17 9 25 8 36 -4 19 -18 19 -46 1 -46 -7 0 -19 -7 -26 -15 -7 -8 -26 -15 -42 -15 -16 0 -31 6 -34 15 -4 8 -14 15 -24 15 -21 0 -32 23 -23 46 5 14 3 15 -14 5 -37 -19 -40 -64 -5 -103 9 -11 10 -18 4 -18 -6 0 -18 9 -26 21 -17 25 -36 17 -36 -14 0 -45 42 -71 95 -61 46 8 44 -1 -6 -27 -44 -22 -89 -19 -89 6 0 8 -4 15 -10 15 -8 0 -16 -54 -11 -82 2 -12 -17 -10 -24 2 -10 16 -25 11 -25 -8 0 -51 101 -76 173 -43 24 11 52 32 61 46 24 37 58 33 96 -12 30 -37 47 -85 67 -188 6 -27 13 -57 17 -65 4 -11 -11 -35 -47 -75 -66 -74 -82 -105 -90 -174 -4 -29 -8 -55 -10 -57 -2 -2 -25 3 -51 12 -58 20 -89 62 -82 111 6 39 -6 49 -42 34 -27 -12 -72 -67 -72 -90 0 -7 -5 -9 -12 -4 -28 17 -87 33 -167 45 -49 7 -85 18 -88 25 -6 17 -35 17 -52 1 -10 -11 -14 -10 -22 5 -11 19 -59 24 -59 5 0 -7 -14 4 -31 25 -17 20 -39 37 -50 37 -23 0 -23 -5 -4 -59 l14 -42 -37 30 c-42 36 -56 39 -49 12 4 -18 3 -18 -30 1 -42 25 -51 18 -30 -26 16 -34 16 -35 -6 -33 -56 2 -79 -3 -73 -18 3 -8 9 -22 12 -30 5 -12 -6 -9 -41 10 -82 43 -98 26 -45 -47 36 -49 38 -63 8 -47 -37 20 -115 37 -129 29 -9 -6 -5 -17 16 -42 l28 -33 -39 -3 c-104 -6 -127 -20 -77 -45 l26 -14 -49 -8 c-27 -4 -64 -13 -83 -21 -19 -8 -36 -13 -38 -11 -7 7 17 239 33 316 91 448 400 848 817 1058 190 95 388 144 652 162 11 0 71 -4 134 -9z m-1549 -1597 c-8 -3 -30 -14 -47 -25 -33 -20 -33 -20 -33 1 0 19 19 27 75 29 13 0 15 -1 5 -5z m1294 -83 c14 -5 72 -19 128 -30 124 -25 155 -44 211 -130 23 -35 119 -145 212 -243 128 -133 191 -190 250 -228 91 -58 268 -194 304 -233 26 -28 51 -34 51 -13 0 17 -46 84 -89 131 l-36 38 45 -22 c47 -24 179 -120 180 -132 0 -3 -39 -43 -87 -88 -456 -426 -1144 -526 -1700 -247 -292 147 -542 397 -688 687 -46 91 -105 249 -105 281 0 20 102 77 212 119 67 25 77 25 50 0 -39 -37 -22 -51 35 -29 56 22 133 29 388 38 286 10 351 20 487 77 88 36 112 40 152 24z"/>
 </g>

</svg>