<?xml version="1.0" standalone="no"?>
<!DOCTYPE svg PUBLIC "-//W3C//DTD SVG 20010904//EN"
 "http://www.w3.org/TR/2001/REC-SVG-20010904/DTD/svg10.dtd">
<svg version="1.0" xmlns="http://www.w3.org/2000/svg"
 width="1024.000000pt" height="1024.000000pt" viewBox="0 0 1024.000000 1024.000000"
 preserveAspectRatio="xMidYMid meet">
<metadata>
Created by potrace 1.15, written by Peter Selinger 2001-2017
</metadata>
<g transform="translate(0.000000,1024.000000) scale(0.100000,-0.100000)"
fill="#000000" stroke="none">
<path d="M771 9119 c-322 -42 -604 -282 -703 -599 l-23 -75 0 -3400 0 -3400
33 -95 c92 -263 306 -469 574 -552 l73 -23 4375 -3 c4845 -3 4448 -8 4610 61
105 46 183 99 271 187 88 88 145 171 187 272 67 161 62 -119 62 3552 0 2834
-2 3335 -14 3399 -60 312 -302 569 -621 659 l-80 23 -4340 1 c-2387 1 -4369
-2 -4404 -7z m8674 -699 c23 -11 52 -35 66 -52 l24 -33 3 -3281 2 -3281 -23
-34 c-12 -18 -38 -44 -56 -56 l-34 -23 -4289 0 c-3672 0 -4293 2 -4316 14 -42
22 -79 67 -91 111 -8 28 -11 973 -11 3270 1 3442 -1 3273 47 3327 10 11 36 29
58 39 39 18 188 19 4309 19 4247 0 4270 0 4311 -20z"/>
<path d="M2244 7756 c-327 -53 -614 -270 -754 -568 -150 -320 -123 -717 67
-1005 51 -77 181 -212 262 -272 290 -214 713 -251 1046 -91 210 101 408 308
495 517 93 222 105 499 33 727 -83 264 -295 502 -550 618 -163 74 -412 105
-599 74z"/>
<path d="M5300 5565 l-1355 -1355 -420 420 c-231 231 -425 420 -430 420 -6 0
-391 -381 -858 -848 l-847 -847 0 -513 0 -512 3740 0 3740 0 0 1193 0 1192
-1103 1103 c-606 606 -1104 1102 -1107 1102 -3 0 -615 -610 -1360 -1355z"/>
</g>
</svg>
