<?xml version="1.0" encoding="utf-8"?>
<!-- Generator: Adobe Illustrator 16.0.0, SVG Export Plug-In . SVG Version: 6.00 Build 0)  -->
<!DOCTYPE svg PUBLIC "-//W3C//DTD SVG 1.1//EN" "http://www.w3.org/Graphics/SVG/1.1/DTD/svg11.dtd">
<svg version="1.1" id="Capa_1" xmlns="http://www.w3.org/2000/svg" xmlns:xlink="http://www.w3.org/1999/xlink" x="0px" y="0px"
	 width="391px" height="612px" viewBox="0 0 391 612" enable-background="new 0 0 391 612" xml:space="preserve">
<g>
	<g>
		<path fill="#8E8D8D" d="M371.571,17.996h-24c-6.623,0-12,5.375-12,12.001c0,6.625-5.399,12.001-12.001,12.001
			c-6.601,0-11.999-5.376-11.999-12.001c0-6.625-5.379-12.001-12-12.001c-6.626,0-12.002,5.375-12.002,12.001
			c0,6.625-5.4,12.001-12.002,12.001c-6.6,0-12.001-5.376-12.001-12.001c0-6.625-5.374-12.001-11.997-12.001
			c-6.625,0-12,5.375-12,12.001c0,6.625-5.398,12.001-12,12.001s-12.002-5.376-12.002-12.001c0-6.625-5.375-12.001-11.999-12.001
			s-12,5.375-12,12.001c0,6.625-5.401,12.001-12.001,12.001c-6.6-0.001-11.999-5.376-11.999-12.001
			c0-6.625-5.377-12.001-12.001-12.001c-6.623,0-11.999,5.375-11.999,12.001c0,6.625-5.401,12.001-12.001,12.001
			c-6.6,0-12-5.376-12-12.001c0-6.625-5.375-12.001-11.999-12.001c-6.623,0-12,5.375-12,12.001c0,6.625-5.4,12.001-12.001,12.001
			c-6.602,0-12-5.376-12-12.001c0-6.625-5.375-12.001-11.999-12.001H35.566c-6.623,0-12,5.375-12,12.001v552.009
			c0,6.624,5.376,12.001,12,12.001h24.001c6.623,0,12.001-5.377,12.001-12.001c0-6.622,5.4-12.001,12-12.001s12,5.379,12,12.001
			c0,6.624,5.376,12.001,12,12.001c6.625,0,12.001-5.377,12.001-12.001c0-6.622,5.4-12.001,12.001-12.001
			c6.601,0,12,5.379,12,12.001c0,6.624,5.376,12.001,12.001,12.001c6.623,0,11.998-5.379,11.998-12.002c0-6.622,5.4-12,12.001-12
			c6.6,0,12,5.378,12,12c0,6.623,5.376,12.001,12,12.001s12.001-5.378,12.001-12.001c0-6.622,5.4-12,12-12c6.602,0,12,5.378,12,12
			c0,6.623,5.377,12.001,12.002,12.001c6.623,0,12.001-5.378,12.001-12.001c0-6.622,5.397-12,11.999-12c6.6,0,12,5.378,12,12
			c0,6.623,5.377,12.001,12,12.001c6.625,0,12.002-5.378,12.002-12.001c0-6.622,5.399-12,12-12s12.002,5.378,12.002,12
			c0,6.623,5.375,12.001,11.998,12.001h24c6.623,0,12-5.378,12-12.001V29.997C383.571,23.372,378.194,17.996,371.571,17.996z
			 M359.572,570.005h-2.065c-4.943-13.968-18.287-23.998-33.936-23.998c-9.217,0-17.615,3.479-24,9.191
			c-12.743-11.425-35.256-11.425-48,0c-12.745-11.425-35.258-11.425-48.001,0c-12.744-11.425-35.256-11.425-48.001,0
			c-12.744-11.425-35.255-11.425-48,0c-6.384-5.711-14.784-9.191-24-9.191c-15.648,0-28.992,10.03-33.936,23.998h-2.064V41.996
			h2.064c4.943,13.968,18.288,24,33.936,24c9.216,0,17.617-3.479,24-9.192c12.746,11.425,35.258,11.425,48,0
			c12.745,11.425,35.257,11.425,48.001,0c12.743,11.425,35.257,11.425,48.001,0c12.744,11.425,35.257,11.425,48,0
			c6.387,5.712,14.783,9.192,24,9.192c15.648,0,28.992-10.032,33.936-24h2.065V570.005z"/>
	</g>
</g>
<g>
	<g>
		<path fill="#8E8D8D" d="M179.569,89.997h-96c-6.625,0-12,5.376-12,12.001c0,6.624,5.375,12,12,12h96
			c6.624,0,12.001-5.376,12.001-12C191.569,95.373,186.193,89.997,179.569,89.997z"/>
	</g>
</g>
<g>
	<g>
		<path fill="#8E8D8D" d="M323.57,161.998H83.566c-6.625,0-12,5.376-12,12.001s5.375,12,12,12h240.003
			c6.624,0,12.002-5.375,12.002-12S330.195,161.998,323.57,161.998z"/>
	</g>
</g>
<g>
	<g>
		<path fill="#8E8D8D" d="M323.57,233.999H83.566c-6.625,0-12,5.376-12,12.001c0,6.624,5.375,12.001,12,12.001h240.003
			c6.624,0,12.002-5.377,12.002-12.001C335.571,239.375,330.195,233.999,323.57,233.999z"/>
	</g>
</g>
<g>
	<g>
		<path fill="#8E8D8D" d="M203.568,306H83.566c-6.625,0-12,5.377-12,12.002c0,6.622,5.375,12,12,12h120.002c6.624,0,12-5.378,12-12
			C215.568,311.377,210.192,306,203.568,306z"/>
	</g>
</g>
<g>
	<g>
		<path fill="#8E8D8D" d="M179.569,378.002h-96c-6.625,0-12,5.377-12,12c0,6.625,5.375,12.001,12,12.001h96
			c6.624,0,12.001-5.376,12.001-12.001C191.569,383.378,186.193,378.002,179.569,378.002z"/>
	</g>
</g>
<g>
	<g>
		<path fill="#8E8D8D" d="M179.569,450.003h-96c-6.625,0-12,5.378-12,11.999c0,6.625,5.375,12.002,12,12.002h96
			c6.624,0,12.001-5.377,12.001-12.002C191.569,455.381,186.193,450.003,179.569,450.003z"/>
	</g>
</g>
<g>
	<g>
		<path fill="#8E8D8D" d="M278.04,402.266l-2.613-0.503c-24.457-4.513-35.857-12.048-35.857-23.761
			c0-13.008,16.51-23.999,36.051-23.999c18.789,0,34.942,10.175,35.998,22.704c0.527,6.622,6.743,11.398,12.959,10.943
			c6.602-0.551,11.498-6.383,10.945-12.983c-2.16-25.464-27.912-44.665-59.902-44.665c-33.123,0-60.052,21.528-60.052,48
			c0,24.648,18.673,40.588,57.601,47.762l2.643,0.503c24.383,4.488,35.759,12.022,35.759,23.736c0,13.008-16.513,24-36.048,24
			c-18.791,0-34.945-10.202-36-22.705c-0.531-6.624-6.962-11.714-12.961-10.944c-6.6,0.552-11.497,6.359-10.945,12.959
			c2.16,25.488,27.913,44.689,59.906,44.689c33.12,0,60.049-21.527,60.049-47.999C335.571,425.379,316.948,409.441,278.04,402.266z"
			/>
	</g>
</g>
<g>
	<g>
		<path fill="#8E8D8D" d="M275.569,306c-6.623,0-12.001,5.377-12.001,12.002v192.003c0,6.624,5.378,12,12.001,12
			c6.625,0,12-5.376,12-12V318.002C287.569,311.377,282.194,306,275.569,306z"/>
	</g>
</g>
<path fill="none" d="M54.168,470.229h87.396v87.396H54.168V470.229z"/>
<rect x="544.334" y="66.621" fill="#649640" width="48.362" height="218.658"/>
<g>
	<g opacity="0.25">
		<image overflow="visible" width="180" height="180" transform="matrix(1 0 0 1 -30.999 467.9238)">
		</image>
	</g>
	<g>
		<path fill="#649640" d="M59.709,504.166c-29.485,0-53.417,23.931-53.417,53.416c0,29.482,23.931,53.417,53.417,53.417
			c29.483,0,53.417-23.935,53.417-53.417C113.126,528.097,89.192,504.166,59.709,504.166z"/>
		<polygon fill="#FFFFFF" points="86.417,562.924 65.051,562.924 65.051,584.29 54.367,584.29 54.367,562.924 33.001,562.924
			33.001,552.239 54.367,552.239 54.367,530.874 65.051,530.874 65.051,552.239 86.417,552.239 		"/>
	</g>
</g>
</svg>
